<svg width="149" height="52" viewBox="0 0 149 52" fill="none" xmlns="http://www.w3.org/2000/svg">
<path d="M22.3392 14.2175H9.65845C4.34202 14.2175 0.0163495 18.6525 0.0136379 24.1061L0.00468535 42.1114C0.00197373 47.565 4.32324 52 9.63966 52H22.3101C27.6265 52 31.9522 47.565 31.9549 42.1114L31.9639 24.1061C31.9666 18.6525 27.6453 14.2175 22.3392 14.2175V14.2175ZM27.7349 42.1008C27.7334 45.1565 25.3015 47.6499 22.3226 47.6499H9.64182C6.66297 47.6499 4.23355 45.1565 4.23507 42.1008L4.24402 24.1061C4.24554 21.0504 6.67744 18.5571 9.65629 18.5571H22.3267C25.3056 18.5571 27.735 21.0504 27.7335 24.1061L27.7245 42.1008H27.7349Z" fill="url(#paint0_linear_112_186)"/>
<path d="M7.82841 12.4987H24.1707C25.3395 12.4987 26.2812 11.5332 26.2818 10.3342L26.2859 2.16446C26.2865 0.965517 25.3457 0 24.1769 0H7.83463C6.66584 0 5.72413 0.965517 5.72353 2.16446L5.71948 10.3236C5.71888 11.5225 6.66997 12.4987 7.82841 12.4987ZM9.94249 4.32891H22.0544L22.0525 8.15915H9.94059L9.94249 4.32891V4.32891Z" fill="url(#paint1_linear_112_186)"/>
<path d="M19.388 23.2789C19.388 23.2789 21.1096 27.3881 13.7211 30.1483C9.70632 31.6476 6.62142 35.4907 10.2996 41.4272C10.6057 38.7737 11.9158 32.923 17.5374 31.5879C17.5374 31.5879 12.3049 33.4943 11.8384 42.1236C14.5264 42.4914 20.8309 42.7385 22.7054 37.4068C25.1806 30.3625 19.388 23.2789 19.388 23.2789Z" fill="url(#paint2_linear_112_186)"/>
<path d="M11.8409 42.0877C17.5488 39.8682 21.7038 34.6687 22.28 28.4618C21.1148 25.395 19.388 23.2789 19.388 23.2789C19.388 23.2789 21.1096 27.3881 13.7211 30.1483C9.70632 31.6476 6.62142 35.4907 10.2996 41.4272C10.6057 38.7737 11.9158 32.923 17.5374 31.5879C17.5371 31.5879 12.3201 33.4896 11.8409 42.0877Z" fill="url(#paint3_linear_112_186)"/>
<path d="M9.73611 30.2858C10.0308 30.2858 10.2697 30.0529 10.2699 29.7656C10.27 29.4783 10.0313 29.2454 9.73663 29.2454C9.44198 29.2454 9.20301 29.4783 9.20287 29.7656C9.20272 30.0529 9.44147 30.2858 9.73611 30.2858Z" fill="url(#paint4_linear_112_186)"/>
<path d="M11.4129 29.6172C11.6234 29.6172 11.7941 29.4508 11.7942 29.2456C11.7943 29.0404 11.6237 28.8741 11.4133 28.8741C11.2028 28.8741 11.0321 29.0404 11.032 29.2456C11.0319 29.4508 11.2025 29.6172 11.4129 29.6172Z" fill="url(#paint5_linear_112_186)"/>
<path d="M10.9722 26.1545C11.4984 26.1545 11.9251 25.7387 11.9253 25.2257C11.9256 24.7127 11.4993 24.2969 10.9732 24.2969C10.447 24.2969 10.0203 24.7127 10.02 25.2257C10.0198 25.7387 10.4461 26.1545 10.9722 26.1545Z" fill="url(#paint6_linear_112_186)"/>
<path d="M14.0048 28.1316C14.1731 28.1316 14.3097 27.9986 14.3098 27.8344C14.3098 27.6702 14.1734 27.5372 14.0051 27.5372C13.8367 27.5372 13.7001 27.6702 13.7 27.8344C13.7 27.9986 13.8364 28.1316 14.0048 28.1316Z" fill="url(#paint7_linear_112_186)"/>
<path d="M16.5592 27.0185C17.0432 27.0185 17.4358 26.6359 17.4361 26.1639C17.4363 25.692 17.0441 25.3094 16.56 25.3094C16.076 25.3094 15.6834 25.692 15.6832 26.1639C15.6829 26.6359 16.0751 27.0185 16.5592 27.0185Z" fill="url(#paint8_linear_112_186)"/>
<path d="M52.08 36.8715V19.1715H45.12V15.8715H62.94V19.1715H55.98V36.8715H52.08ZM71.0663 37.0815C69.4263 37.0815 67.9663 36.7315 66.6863 36.0315C65.4063 35.3115 64.3963 34.3315 63.6563 33.0915C62.9163 31.8515 62.5463 30.4415 62.5463 28.8615C62.5463 27.2615 62.9163 25.8515 63.6563 24.6315C64.3963 23.3915 65.4063 22.4215 66.6863 21.7215C67.9663 21.0215 69.4263 20.6715 71.0663 20.6715C72.7263 20.6715 74.1963 21.0215 75.4763 21.7215C76.7763 22.4215 77.7863 23.3815 78.5063 24.6015C79.2463 25.8215 79.6163 27.2415 79.6163 28.8615C79.6163 30.4415 79.2463 31.8515 78.5063 33.0915C77.7863 34.3315 76.7763 35.3115 75.4763 36.0315C74.1963 36.7315 72.7263 37.0815 71.0663 37.0815ZM71.0663 33.8715C71.9863 33.8715 72.8063 33.6715 73.5263 33.2715C74.2463 32.8715 74.8063 32.2915 75.2063 31.5315C75.6263 30.7715 75.8363 29.8815 75.8363 28.8615C75.8363 27.8215 75.6263 26.9315 75.2063 26.1915C74.8063 25.4315 74.2463 24.8515 73.5263 24.4515C72.8063 24.0515 71.9963 23.8515 71.0963 23.8515C70.1763 23.8515 69.3563 24.0515 68.6363 24.4515C67.9363 24.8515 67.3763 25.4315 66.9563 26.1915C66.5363 26.9315 66.3263 27.8215 66.3263 28.8615C66.3263 29.8815 66.5363 30.7715 66.9563 31.5315C67.3763 32.2915 67.9363 32.8715 68.6363 33.2715C69.3563 33.6715 70.1663 33.8715 71.0663 33.8715ZM92.0822 37.0815C90.7822 37.0815 89.5922 36.7815 88.5122 36.1815C87.4522 35.5815 86.6022 34.6815 85.9622 33.4815C85.3422 32.2615 85.0322 30.7215 85.0322 28.8615C85.0322 26.9815 85.3322 25.4415 85.9322 24.2415C86.5522 23.0415 87.3922 22.1515 88.4522 21.5715C89.5122 20.9715 90.7222 20.6715 92.0822 20.6715C93.6622 20.6715 95.0522 21.0115 96.2522 21.6915C97.4722 22.3715 98.4322 23.3215 99.1322 24.5415C99.8522 25.7615 100.212 27.2015 100.212 28.8615C100.212 30.5215 99.8522 31.9715 99.1322 33.2115C98.4322 34.4315 97.4722 35.3815 96.2522 36.0615C95.0522 36.7415 93.6622 37.0815 92.0822 37.0815ZM83.2022 42.6915V20.8515H86.7722V24.6315L86.6522 28.8915L86.9522 33.1515V42.6915H83.2022ZM91.6622 33.8715C92.5622 33.8715 93.3622 33.6715 94.0622 33.2715C94.7822 32.8715 95.3522 32.2915 95.7722 31.5315C96.1922 30.7715 96.4022 29.8815 96.4022 28.8615C96.4022 27.8215 96.1922 26.9315 95.7722 26.1915C95.3522 25.4315 94.7822 24.8515 94.0622 24.4515C93.3622 24.0515 92.5622 23.8515 91.6622 23.8515C90.7622 23.8515 89.9522 24.0515 89.2322 24.4515C88.5122 24.8515 87.9422 25.4315 87.5222 26.1915C87.1022 26.9315 86.8922 27.8215 86.8922 28.8615C86.8922 29.8815 87.1022 30.7715 87.5222 31.5315C87.9422 32.2915 88.5122 32.8715 89.2322 33.2715C89.9522 33.6715 90.7622 33.8715 91.6622 33.8715ZM111.299 37.0815C109.519 37.0815 107.959 36.7315 106.619 36.0315C105.299 35.3115 104.269 34.3315 103.529 33.0915C102.809 31.8515 102.449 30.4415 102.449 28.8615C102.449 27.2615 102.799 25.8515 103.499 24.6315C104.219 23.3915 105.199 22.4215 106.439 21.7215C107.699 21.0215 109.129 20.6715 110.729 20.6715C112.289 20.6715 113.679 21.0115 114.899 21.6915C116.119 22.3715 117.079 23.3315 117.779 24.5715C118.479 25.8115 118.829 27.2715 118.829 28.9515C118.829 29.1115 118.819 29.2915 118.799 29.4915C118.799 29.6915 118.789 29.8815 118.769 30.0615H105.419V27.5715H116.789L115.319 28.3515C115.339 27.4315 115.149 26.6215 114.749 25.9215C114.349 25.2215 113.799 24.6715 113.099 24.2715C112.419 23.8715 111.629 23.6715 110.729 23.6715C109.809 23.6715 108.999 23.8715 108.299 24.2715C107.619 24.6715 107.079 25.2315 106.679 25.9515C106.299 26.6515 106.109 27.4815 106.109 28.4415V29.0415C106.109 30.0015 106.329 30.8515 106.769 31.5915C107.209 32.3315 107.829 32.9015 108.629 33.3015C109.429 33.7015 110.349 33.9015 111.389 33.9015C112.289 33.9015 113.099 33.7615 113.819 33.4815C114.539 33.2015 115.179 32.7615 115.739 32.1615L117.749 34.4715C117.029 35.3115 116.119 35.9615 115.019 36.4215C113.939 36.8615 112.699 37.0815 111.299 37.0815ZM122.431 36.8715V20.8515H126.001V25.2615L125.581 23.9715C126.061 22.8915 126.811 22.0715 127.831 21.5115C128.871 20.9515 130.161 20.6715 131.701 20.6715V24.2415C131.541 24.2015 131.391 24.1815 131.251 24.1815C131.111 24.1615 130.971 24.1515 130.831 24.1515C129.411 24.1515 128.281 24.5715 127.441 25.4115C126.601 26.2315 126.181 27.4615 126.181 29.1015V36.8715H122.431ZM139.978 37.0815C138.638 37.0815 137.348 36.9115 136.108 36.5715C134.888 36.2115 133.918 35.7815 133.198 35.2815L134.638 32.4315C135.358 32.8915 136.218 33.2715 137.218 33.5715C138.218 33.8715 139.218 34.0215 140.218 34.0215C141.398 34.0215 142.248 33.8615 142.768 33.5415C143.308 33.2215 143.578 32.7915 143.578 32.2515C143.578 31.8115 143.398 31.4815 143.038 31.2615C142.678 31.0215 142.208 30.8415 141.628 30.7215C141.048 30.6015 140.398 30.4915 139.678 30.3915C138.978 30.2915 138.268 30.1615 137.548 30.0015C136.848 29.8215 136.208 29.5715 135.628 29.2515C135.048 28.9115 134.578 28.4615 134.218 27.9015C133.858 27.3415 133.678 26.6015 133.678 25.6815C133.678 24.6615 133.968 23.7815 134.548 23.0415C135.128 22.2815 135.938 21.7015 136.978 21.3015C138.038 20.8815 139.288 20.6715 140.728 20.6715C141.808 20.6715 142.898 20.7915 143.998 21.0315C145.098 21.2715 146.008 21.6115 146.728 22.0515L145.288 24.9015C144.528 24.4415 143.758 24.1315 142.978 23.9715C142.218 23.7915 141.458 23.7015 140.698 23.7015C139.558 23.7015 138.708 23.8715 138.148 24.2115C137.608 24.5515 137.338 24.9815 137.338 25.5015C137.338 25.9815 137.518 26.3415 137.878 26.5815C138.238 26.8215 138.708 27.0115 139.288 27.1515C139.868 27.2915 140.508 27.4115 141.208 27.5115C141.928 27.5915 142.638 27.7215 143.338 27.9015C144.038 28.0815 144.678 28.3315 145.258 28.6515C145.858 28.9515 146.338 29.3815 146.698 29.9415C147.058 30.5015 147.238 31.2315 147.238 32.1315C147.238 33.1315 146.938 34.0015 146.338 34.7415C145.758 35.4815 144.928 36.0615 143.848 36.4815C142.768 36.8815 141.478 37.0815 139.978 37.0815Z" fill="url(#paint9_linear_112_186)"/>
<defs>
<linearGradient id="paint0_linear_112_186" x1="31.9688" y1="14.2175" x2="-1.01423" y2="15.2385" gradientUnits="userSpaceOnUse">
<stop stop-color="#008EA1"/>
<stop offset="0.993772" stop-color="#00B7AC"/>
</linearGradient>
<linearGradient id="paint1_linear_112_186" x1="26.287" y1="0" x2="5.11757" y2="1.28475" gradientUnits="userSpaceOnUse">
<stop stop-color="#008EA1"/>
<stop offset="0.993772" stop-color="#00B7AC"/>
</linearGradient>
<linearGradient id="paint2_linear_112_186" x1="23.3259" y1="23.2789" x2="8.18463" y2="23.7057" gradientUnits="userSpaceOnUse">
<stop stop-color="#008EA1"/>
<stop offset="0.993772" stop-color="#00B7AC"/>
</linearGradient>
<linearGradient id="paint3_linear_112_186" x1="22.2826" y1="23.2789" x2="8.21718" y2="23.6507" gradientUnits="userSpaceOnUse">
<stop stop-color="#008EA1"/>
<stop offset="0.993772" stop-color="#00B7AC"/>
</linearGradient>
<linearGradient id="paint4_linear_112_186" x1="10.2701" y1="29.2454" x2="9.16914" y2="29.2869" gradientUnits="userSpaceOnUse">
<stop stop-color="#008EA1"/>
<stop offset="0.993772" stop-color="#00B7AC"/>
</linearGradient>
<linearGradient id="paint5_linear_112_186" x1="11.7943" y1="28.8741" x2="11.008" y2="28.9037" gradientUnits="userSpaceOnUse">
<stop stop-color="#008EA1"/>
<stop offset="0.993772" stop-color="#00B7AC"/>
</linearGradient>
<linearGradient id="paint6_linear_112_186" x1="11.9258" y1="24.2969" x2="9.95982" y2="24.3709" gradientUnits="userSpaceOnUse">
<stop stop-color="#008EA1"/>
<stop offset="0.993772" stop-color="#00B7AC"/>
</linearGradient>
<linearGradient id="paint7_linear_112_186" x1="14.3099" y1="27.5372" x2="13.6808" y2="27.5609" gradientUnits="userSpaceOnUse">
<stop stop-color="#008EA1"/>
<stop offset="0.993772" stop-color="#00B7AC"/>
</linearGradient>
<linearGradient id="paint8_linear_112_186" x1="17.4365" y1="25.3094" x2="15.6278" y2="25.3775" gradientUnits="userSpaceOnUse">
<stop stop-color="#008EA1"/>
<stop offset="0.993772" stop-color="#00B7AC"/>
</linearGradient>
<linearGradient id="paint9_linear_112_186" x1="149" y1="7.87146" x2="42.7349" y2="19.1617" gradientUnits="userSpaceOnUse">
<stop stop-color="#008EA1"/>
<stop offset="0.993772" stop-color="#00B7AC"/>
</linearGradient>
</defs>
</svg>
