<svg width="32" height="52" viewBox="0 0 32 52" fill="none" xmlns="http://www.w3.org/2000/svg">
<path d="M22.3392 14.2175H9.65845C4.34202 14.2175 0.0163495 18.6525 0.0136379 24.1061L0.00468535 42.1114C0.00197373 47.565 4.32324 52 9.63966 52H22.3101C27.6265 52 31.9522 47.565 31.9549 42.1114L31.9639 24.1061C31.9666 18.6525 27.6453 14.2175 22.3392 14.2175V14.2175ZM27.7349 42.1008C27.7334 45.1565 25.3015 47.6499 22.3226 47.6499H9.64182C6.66297 47.6499 4.23355 45.1565 4.23507 42.1008L4.24402 24.1061C4.24554 21.0504 6.67744 18.5571 9.65629 18.5571H22.3267C25.3056 18.5571 27.735 21.0504 27.7335 24.1061L27.7245 42.1008H27.7349Z" fill="url(#paint0_linear_112_187)"/>
<path d="M7.82841 12.4987H24.1707C25.3395 12.4987 26.2812 11.5332 26.2818 10.3342L26.2859 2.16446C26.2865 0.965517 25.3457 0 24.1769 0H7.83463C6.66584 0 5.72413 0.965517 5.72353 2.16446L5.71948 10.3236C5.71888 11.5225 6.66997 12.4987 7.82841 12.4987ZM9.94249 4.32891H22.0544L22.0525 8.15915H9.94059L9.94249 4.32891V4.32891Z" fill="url(#paint1_linear_112_187)"/>
<path d="M19.388 23.2789C19.388 23.2789 21.1096 27.3881 13.7211 30.1483C9.70632 31.6476 6.62142 35.4907 10.2996 41.4272C10.6057 38.7737 11.9158 32.923 17.5374 31.5879C17.5374 31.5879 12.3049 33.4943 11.8384 42.1236C14.5264 42.4914 20.8309 42.7385 22.7054 37.4068C25.1806 30.3625 19.388 23.2789 19.388 23.2789Z" fill="url(#paint2_linear_112_187)"/>
<path d="M11.8409 42.0877C17.5488 39.8682 21.7038 34.6687 22.28 28.4618C21.1148 25.395 19.388 23.2789 19.388 23.2789C19.388 23.2789 21.1096 27.3881 13.7211 30.1483C9.70632 31.6476 6.62142 35.4907 10.2996 41.4272C10.6057 38.7737 11.9158 32.923 17.5374 31.5879C17.5371 31.5879 12.3201 33.4896 11.8409 42.0877Z" fill="url(#paint3_linear_112_187)"/>
<path d="M9.73611 30.2858C10.0308 30.2858 10.2697 30.0529 10.2699 29.7656C10.27 29.4783 10.0313 29.2454 9.73663 29.2454C9.44198 29.2454 9.20301 29.4783 9.20287 29.7656C9.20272 30.0529 9.44147 30.2858 9.73611 30.2858Z" fill="url(#paint4_linear_112_187)"/>
<path d="M11.4129 29.6172C11.6234 29.6172 11.7941 29.4508 11.7942 29.2456C11.7943 29.0404 11.6237 28.8741 11.4133 28.8741C11.2028 28.8741 11.0321 29.0404 11.032 29.2456C11.0319 29.4508 11.2025 29.6172 11.4129 29.6172Z" fill="url(#paint5_linear_112_187)"/>
<path d="M10.9722 26.1545C11.4984 26.1545 11.9251 25.7387 11.9253 25.2257C11.9256 24.7127 11.4993 24.2969 10.9732 24.2969C10.447 24.2969 10.0203 24.7127 10.02 25.2257C10.0198 25.7387 10.4461 26.1545 10.9722 26.1545Z" fill="url(#paint6_linear_112_187)"/>
<path d="M14.0048 28.1316C14.1731 28.1316 14.3097 27.9986 14.3098 27.8344C14.3098 27.6702 14.1734 27.5372 14.0051 27.5372C13.8367 27.5372 13.7001 27.6702 13.7 27.8344C13.7 27.9986 13.8364 28.1316 14.0048 28.1316Z" fill="url(#paint7_linear_112_187)"/>
<path d="M16.5592 27.0185C17.0432 27.0185 17.4358 26.6359 17.4361 26.1639C17.4363 25.692 17.0441 25.3094 16.56 25.3094C16.076 25.3094 15.6834 25.692 15.6832 26.1639C15.6829 26.6359 16.0751 27.0185 16.5592 27.0185Z" fill="url(#paint8_linear_112_187)"/>
<defs>
<linearGradient id="paint0_linear_112_187" x1="31.9688" y1="14.2175" x2="-1.01423" y2="15.2385" gradientUnits="userSpaceOnUse">
<stop stop-color="#008EA1"/>
<stop offset="0.993772" stop-color="#00B7AC"/>
</linearGradient>
<linearGradient id="paint1_linear_112_187" x1="26.287" y1="0" x2="5.11757" y2="1.28475" gradientUnits="userSpaceOnUse">
<stop stop-color="#008EA1"/>
<stop offset="0.993772" stop-color="#00B7AC"/>
</linearGradient>
<linearGradient id="paint2_linear_112_187" x1="23.3259" y1="23.2789" x2="8.18463" y2="23.7057" gradientUnits="userSpaceOnUse">
<stop stop-color="#008EA1"/>
<stop offset="0.993772" stop-color="#00B7AC"/>
</linearGradient>
<linearGradient id="paint3_linear_112_187" x1="22.2826" y1="23.2789" x2="8.21718" y2="23.6507" gradientUnits="userSpaceOnUse">
<stop stop-color="#008EA1"/>
<stop offset="0.993772" stop-color="#00B7AC"/>
</linearGradient>
<linearGradient id="paint4_linear_112_187" x1="10.2701" y1="29.2454" x2="9.16914" y2="29.2869" gradientUnits="userSpaceOnUse">
<stop stop-color="#008EA1"/>
<stop offset="0.993772" stop-color="#00B7AC"/>
</linearGradient>
<linearGradient id="paint5_linear_112_187" x1="11.7943" y1="28.8741" x2="11.008" y2="28.9037" gradientUnits="userSpaceOnUse">
<stop stop-color="#008EA1"/>
<stop offset="0.993772" stop-color="#00B7AC"/>
</linearGradient>
<linearGradient id="paint6_linear_112_187" x1="11.9258" y1="24.2969" x2="9.95982" y2="24.3709" gradientUnits="userSpaceOnUse">
<stop stop-color="#008EA1"/>
<stop offset="0.993772" stop-color="#00B7AC"/>
</linearGradient>
<linearGradient id="paint7_linear_112_187" x1="14.3099" y1="27.5372" x2="13.6808" y2="27.5609" gradientUnits="userSpaceOnUse">
<stop stop-color="#008EA1"/>
<stop offset="0.993772" stop-color="#00B7AC"/>
</linearGradient>
<linearGradient id="paint8_linear_112_187" x1="17.4365" y1="25.3094" x2="15.6278" y2="25.3775" gradientUnits="userSpaceOnUse">
<stop stop-color="#008EA1"/>
<stop offset="0.993772" stop-color="#00B7AC"/>
</linearGradient>
</defs>
</svg>
